<svg width="99" height="86" xmlns="http://www.w3.org/2000/svg">

 <g>
  <title>background</title>
  <rect fill="none" id="canvas_background" height="402" width="582" y="-1" x="-1"/>
 </g>
 <g>
  <title>Layer 1</title>
  <g id="surface1">
   <path id="svg_1" fill-rule="nonzero" fill="rgb(100%,100%,100%)" d="m99.11328,42.92578c0,-5.05078 -1.48828,-9.88672 -4.42578,-14.38672c-2.63672,-4.03515 -6.33203,-7.60937 -10.98047,-10.625c-8.97656,-5.8125 -20.77344,-9.01562 -33.21875,-9.01562c-4.15625,0 -8.2539,0.35547 -12.22656,1.0625c-2.46484,-2.34375 -5.35156,-4.44531 -8.40625,-6.10938c-16.31641,-8.02344 -29.84766,-0.1914 -29.84766,-0.1914c0,0 12.58203,10.48047 10.53516,19.66797c-5.62891,5.66406 -8.67969,12.48828 -8.67969,19.59765c0,0.02344 0.00391,0.04297 0.00391,0.06641c0,0.02344 -0.00391,0.04297 -0.00391,0.0664c0,7.10938 3.05078,13.9375 8.67969,19.59766c2.04687,9.1875 -10.53516,19.66797 -10.53516,19.66797c0,0 13.53125,7.83203 29.84766,-0.1875c3.05469,-1.66797 5.9375,-3.76953 8.40625,-6.11328c3.97266,0.70703 8.07031,1.0625 12.22656,1.0625c12.44531,0 24.24219,-3.19922 33.21875,-9.01563c4.64844,-3.01172 8.34375,-6.58593 10.98047,-10.625c2.9375,-4.5 4.42578,-9.33984 4.42578,-14.38672c0,-0.01953 0,-0.04296 0,-0.0664l0,-0.06641zm0,0"/>
   <path id="svg_2" fill-rule="nonzero" fill="#E6C36A" d="m50.48828,16.03125c23.04297,0 41.72266,12.10156 41.72266,27.02734c0,14.92579 -18.67969,27.02735 -41.72266,27.02735c-5.1289,0 -10.04297,-0.60156 -14.58594,-1.69922c-4.61328,5.62891 -14.76171,13.45312 -24.62109,10.92578c3.20703,-3.49219 7.95703,-9.39453 6.94141,-19.12109c-5.91016,-4.66016 -9.45703,-10.62891 -9.45703,-17.13282c0,-14.92578 18.67968,-27.02734 41.72265,-27.02734"/>
   <path id="svg_3" fill-rule="nonzero" fill="rgb(100%,100%,100%)" d="m32.91016,45.41797l0.38281,-1.92188l6.94531,0l-1.35156,6.91016c-0.87109,0.58594 -1.87109,1.06641 -2.99219,1.4375c-1.11719,0.37109 -2.21484,0.55469 -3.29687,0.55469c-2.3086,0 -4.03125,-0.74219 -5.16797,-2.23438c-0.96094,-1.25781 -1.44141,-2.875 -1.44141,-4.85156c0,-2.02734 0.41797,-3.875 1.25781,-5.54297c0.84375,-1.67187 1.90235,-2.90625 3.17969,-3.70312c1.28125,-0.80078 2.70703,-1.19922 4.27344,-1.19922c1.125,0 2.14062,0.21875 3.03516,0.65234c0.89453,0.4336 1.57421,1.01563 2.04687,1.74219c0.48047,0.73047 0.82031,1.67969 1.03125,2.85547l-2.08203,0.24219c-0.22266,-1.16797 -0.68359,-2.0625 -1.39063,-2.67579c-0.70312,-0.625 -1.60156,-0.9375 -2.70312,-0.9375c-1.15234,0 -2.22656,0.33594 -3.22266,1.00782c-0.99218,0.66797 -1.78515,1.67187 -2.38281,3.01562c-0.59766,1.34375 -0.89453,2.8711 -0.89453,4.58594c0,1.70312 0.39062,2.98828 1.17578,3.86328c0.78906,0.87109 1.87891,1.30078 3.26563,1.30078c1.375,0 2.85937,-0.48437 4.44921,-1.45703l0.71485,-3.64453l-4.83203,0zm0,0"/>
   <path id="svg_4" fill-rule="nonzero" fill="rgb(100%,100%,100%)" d="m54.44141,46.14453l2.09765,0.30469c-0.66406,1.96094 -1.63672,3.44141 -2.91015,4.44922c-1.26563,1.0039 -2.69141,1.5 -4.27344,1.5c-1.92578,0 -3.45313,-0.62891 -4.58203,-1.88672c-1.125,-1.26172 -1.6836,-3.05859 -1.6836,-5.39844c0,-3.05469 0.85547,-5.58203 2.56641,-7.57812c1.53125,-1.77735 3.43359,-2.66797 5.70703,-2.66797c1.6836,0 3.04688,0.48437 4.08594,1.44922c1.03906,0.96093 1.64062,2.2539 1.80859,3.875l-1.97656,0.19922c-0.20703,-1.22266 -0.64062,-2.13672 -1.29687,-2.73829c-0.65235,-0.60937 -1.4961,-0.91406 -2.52735,-0.91406c-1.9414,0 -3.50781,0.92188 -4.69922,2.76172c-1.03906,1.58984 -1.55859,3.47266 -1.55859,5.65625c0,1.74219 0.39844,3.07422 1.19531,3.98828c0.80469,0.91797 1.84375,1.375 3.12891,1.375c1.09375,0 2.08594,-0.3789 2.97265,-1.14453c0.88672,-0.75781 1.53516,-1.83984 1.94532,-3.23047zm0,0"/>
   <path id="svg_5" fill-rule="nonzero" fill="rgb(100%,100%,100%)" d="m66.15234,45.41797l0.38282,-1.92188l6.94531,0l-1.35156,6.91016c-0.875,0.58594 -1.8711,1.06641 -2.99219,1.4375c-1.12109,0.37109 -2.21484,0.55469 -3.29688,0.55469c-2.30859,0 -4.03125,-0.74219 -5.16796,-2.23438c-0.96485,-1.25781 -1.44532,-2.875 -1.44532,-4.85156c0,-2.02734 0.41797,-3.875 1.25782,-5.54297c0.84765,-1.67187 1.90625,-2.90625 3.18359,-3.70312c1.28125,-0.80078 2.70312,-1.19922 4.26953,-1.19922c1.12891,0 2.14453,0.21875 3.03906,0.65234c0.89063,0.4336 1.57422,1.01563 2.04688,1.74219c0.47656,0.73047 0.82031,1.67969 1.02734,2.85547l-2.07812,0.24219c-0.22266,-1.16797 -0.6875,-2.0625 -1.39453,-2.67579c-0.69922,-0.625 -1.59766,-0.9375 -2.69922,-0.9375c-1.15235,0 -2.22657,0.33594 -3.22266,1.00782c-0.99609,0.66797 -1.78906,1.67187 -2.38281,3.01562c-0.59766,1.34375 -0.89453,2.8711 -0.89453,4.58594c0,1.70312 0.39062,2.98828 1.17578,3.86328c0.78906,0.87109 1.875,1.30078 3.26562,1.30078c1.375,0 2.85938,-0.48437 4.44922,-1.45703l0.71485,-3.64453l-4.83204,0zm0,0"/>
  </g>
 </g>
</svg>